<svg width="38" height="39" viewBox="0 0 38 39" fill="none" xmlns="http://www.w3.org/2000/svg">
<path fill-rule="evenodd" clip-rule="evenodd" d="M14.6373 19.0141L14.6431 18.9514L14.6967 18.9468L14.7281 18.8515L14.8157 18.7623L14.8441 18.7905L14.8531 18.9081L14.7933 19.0688L14.7148 19.057L14.6373 19.0141ZM13.9491 20.3293L13.903 20.3589L13.8704 20.3531L13.8583 20.2772L13.906 20.225L13.9787 20.2697L13.9491 20.3293ZM6.17398 17.3213L6.11834 17.2861L6.10786 17.2498L6.12509 17.2184L6.16886 17.2286L6.20239 17.2677L6.20891 17.3241L6.17398 17.3213ZM15.4648 5.92221L15.3993 5.8726L15.4117 5.84139H15.4866L15.5176 5.87866L15.4648 5.92221ZM37.8853 21.1641H28.3098L28.2909 21.1706L28.2425 21.2235L28.2672 21.2635L28.1261 21.3134L28.0516 21.4175H27.9303L27.8791 21.4345L27.8714 21.4641L27.8125 21.5326L27.8092 21.5822L27.8355 21.6024L27.7676 21.7082L27.7005 21.7904V21.8838L27.6397 22.0142L27.491 22.2318L27.4039 22.2676L27.368 22.2665L27.3527 22.266L27.3727 22.2893L27.3804 22.3529L27.3527 22.3934L27.2642 22.6668L27.1957 22.8394L27.2002 22.934L27.3168 23.0348L27.4039 23.1327L27.4581 23.1252L27.5126 23.2773L27.4893 23.3255L27.4551 23.3148L27.4053 23.3474L27.3804 23.4469L27.3881 23.5989L27.4505 23.6595L27.4397 23.7559L27.3836 23.8025L27.3976 23.8943L27.4428 24.0033L27.4195 24.0093L27.4442 24.0589L27.4614 24.1398L27.5094 24.1817L27.4691 24.2483L27.5082 24.2951L27.5499 24.4179L27.5357 24.48L27.6819 24.6214L27.789 24.637L27.8779 24.7123V24.7525L27.8886 24.7593L27.9182 24.7775L27.9028 24.8741L27.8809 24.9242L27.9028 24.9428L27.8188 25.0642L27.8092 25.108L27.8248 25.1392L27.8309 25.1641L27.7999 25.1951L27.8188 25.3418L27.8653 25.4289L27.8404 25.4538V25.5598L27.8637 25.5847L27.8665 25.6872L27.8232 25.7308L27.8386 25.8393L27.8092 26.0431L27.7922 26.0445L27.8153 26.079L27.8171 26.2637L27.7548 26.2732L27.7517 26.2965L27.7736 26.3259L27.8558 26.3291L27.8777 26.3461L27.8963 26.5061L27.8544 26.5665L27.8106 26.5883L27.8374 26.6251L27.8248 26.6659H27.7717L27.7126 26.7253L27.7282 26.7472L27.7468 26.7314L27.7999 26.7376L27.7627 26.7905L27.7534 26.8748L27.7003 26.8841L27.6097 26.9994V27.0495L27.5289 27.1615L27.4605 27.1709L27.4665 27.2486L27.1923 27.3982L27.1517 27.4014L27.1301 27.4604L26.8679 27.5999L26.7671 27.5875L26.7625 27.6092L26.6428 27.6653L26.4768 27.7741L26.4363 27.7475L26.4347 27.799L26.3338 27.9218L26.284 27.9434L26.2544 27.878L26.2375 27.9851L26.1893 27.9977L26.1737 28.0599L26.0074 28.1579L26.0044 28.1996L25.9609 28.2369L25.9222 28.2495L25.9269 28.307L25.8305 28.31L25.6098 28.4579L25.6226 28.5513L25.5509 28.6044H25.451L25.4107 28.6573L25.3327 28.6072L25.2889 28.6137V28.6477L25.3294 28.6948L25.3264 28.76L25.2955 28.8005L25.3078 28.8629L25.2643 28.9282L25.3825 29.0872L25.3858 29.1434L25.3327 29.1867L25.3734 29.2058L25.417 29.2773L25.42 29.374L25.4687 29.4646L25.4484 29.7224L25.4717 29.8125L25.5013 29.8079V29.7366L25.5478 29.6369L25.5541 29.7238L25.5744 29.7208L25.5695 29.833L25.5353 29.8756L25.529 29.9879L25.5476 30.0035L25.4978 30.1344V30.2031L25.4605 30.2497L25.4542 30.3338H25.4324L25.4479 30.4055L25.5106 30.3682L25.5245 30.4155L25.4733 30.4933L25.4484 30.5988L25.2978 30.7588L25.0305 30.88L24.6687 30.9517L24.5304 31.0835L24.4249 31.1098L24.3937 31.1597L24.3411 31.2018L24.3115 31.3027L24.2696 31.3013L24.2308 31.3276L24.2478 31.3495L24.2883 31.4252L24.2836 31.4981L24.3209 31.4503L24.38 31.4687L24.3984 31.3991L24.4249 31.3942L24.4277 31.4331L24.4107 31.5491L24.3702 31.6178L24.3679 31.6812L24.3672 31.7017L24.3171 31.7673L24.3423 31.7767L24.2922 31.926L24.2799 32.0541L24.2182 32.1773L24.1781 32.3359L24.1188 32.4074L24.1004 32.4803L23.9868 32.614H23.9511L23.926 32.6498L23.8424 32.6887L23.8038 32.7367L23.7041 32.8003L23.6538 32.8984L23.5728 32.9917V33.0323L23.526 33.1196L23.4482 33.1229L23.3858 33.2442L23.2145 33.5309L23.0827 33.6567L23.0611 33.7713L22.9849 33.8044L22.912 33.8912L22.8701 33.8929L22.8515 33.9253L22.4213 34.3496L22.3684 34.3587L22.37 34.3806L22.3002 34.4584L22.0175 34.6403L21.957 34.7069L21.8576 34.7367V34.763L21.6997 34.8045L21.6094 34.8602L21.5167 34.8685L21.472 34.8345L21.3461 34.8394L21.2418 34.8709L21.1978 34.9468L21.2597 34.9983L21.2544 35.0199L21.1107 35.0232L21.0262 34.9799L20.9591 34.9729L20.9012 35.0316L20.9261 35.0833L20.8998 35.1087L20.7021 35.0665L20.646 35.0239L20.4565 34.9757L20.3321 35.0004L20.3307 35.0299L20.2656 35.0532L20.1692 35.002L19.9487 35.0004L19.8833 35.0299L19.8632 35.0984L19.8197 35.0782L19.7685 35.0924L19.7233 35.1294L19.6984 35.1625L19.6006 35.1685L19.5371 35.1962L19.4158 35.1529L19.3133 35.159L19.2933 35.1888L19.1936 35.1669L19.1054 35.268L19.0307 35.2817L19.0044 35.3407L18.9608 35.3253L18.9217 35.3441L18.7168 35.2477L18.6751 35.2724L18.6703 35.1732L18.5925 35.1327L18.5336 35.1625L18.4947 35.1452L18.5289 35.1171L18.5073 35.0316L18.4109 35.0146L18.3424 35.0751L18.3473 35.1513L18.2945 35.1124L18.2898 35.0286L18.3194 34.9587L18.3008 34.8543L18.3566 34.763L18.2835 34.6307L18.2107 34.5655L18.1485 34.4584V34.3524L18.1918 34.3124L18.2323 34.354H18.2696L18.3178 34.3012L18.3424 34.174L18.2977 34.0357L18.3052 33.9735L18.1869 33.7769L18.1837 33.687L18.0682 33.537L18.0156 33.2973L17.9285 33.0698L17.9315 32.9545L17.844 32.702L17.7103 32.6056L17.6884 32.4717L17.6854 32.4696L17.545 32.3689L17.5234 32.3126L17.4235 32.2129L17.3241 32.0166L17.2491 31.9136L17.2414 31.7548L17.176 31.6833V31.5994L17.2195 31.5652L17.1825 31.4923L17.1264 31.4627L17.0966 31.2468L17.0468 31.1846L17.1057 31.1471L17.0684 31.0288L17.081 30.8541L16.9595 30.5301L16.9469 30.2122L16.8878 30.0003L16.9409 29.9786V29.8074L16.7229 29.4925V29.3772L16.5171 29.0842L16.4859 28.9002L16.2822 28.4425L16.1511 28.2178L15.9078 27.9683L15.8829 27.5752L15.9015 27.4438L15.895 27.2442L15.9141 27.1131V26.9636L16.0263 26.8261L16.0512 26.6701L16.1511 26.539V26.208L16.1886 26.177L16.1947 26.0396L16.4193 25.84L16.4256 25.7401L16.6065 25.6027H16.6563L16.8186 25.2969V24.9349L16.7686 24.8725L16.7751 24.8038L16.6191 24.5478V24.4418L16.5565 24.3419V24.1922L16.4817 24.1549L16.6128 23.9863L16.6314 23.8242L16.5069 23.6493L16.4987 23.3283L16.271 23.0733V23.0139L16.2275 22.9608L16.346 22.8956L16.2959 22.8581L16.1774 22.855L16.156 22.8068L16.1339 22.7584L16.1809 22.671L16.1527 22.5527L16.1029 22.4982L16.0561 22.4465L16.0592 22.3654L15.9937 22.2939L15.9907 22.2194L15.8661 22.1414L15.838 22.0883L15.7565 22.0091L15.7383 21.9916L15.6668 21.9637L15.6543 21.895L15.505 21.8235L15.4676 21.7331L15.2804 21.5836L15.1684 21.465L15.1996 21.4431L15.0936 21.3558L15.0499 21.2591L14.9877 21.1969V21.0726L14.913 20.9759V20.9102L14.8662 20.873L14.7789 20.6922L14.7852 20.6487L14.8848 20.6829L14.9628 20.6172L14.9814 20.3901L14.994 20.2748L15.0406 20.3214L15.2212 20.2779L15.0936 20.2469L15.0124 20.1158L15.0997 20.1034L15.105 20.0056L15.106 19.9816L15.0033 19.9287L15.106 19.7326L15.2368 19.5859L15.2056 19.5142L15.2219 19.4981L15.2869 19.4333L15.2277 19.3709L15.2836 19.2277L15.2683 19.0686L15.1933 18.9626V18.8473L15.2212 18.7945L15.1591 18.6948L15.0375 18.7477L15 18.7041L14.9283 18.6948L14.8787 18.4425L14.8133 18.4765L14.7574 18.45L14.7542 18.4486L14.723 18.4672L14.6483 18.3894L14.6075 18.5047L14.5016 18.5266L14.4394 18.4982L14.2492 18.5669L14.1903 18.542L14.109 18.5918L13.7104 18.6137L13.561 18.5732L13.455 18.4765L13.4085 18.3331L13.3524 18.3054L13.3554 18.1742L13.2525 17.9749L13.0846 17.8097L12.7824 17.6509L12.6516 17.7037L12.4907 17.6697L12.4739 17.6662L12.1906 17.7629L12.0427 17.7436L12.0004 17.738L11.7792 17.8752L11.7445 17.8798L11.5207 17.9096L11.3242 18.003L11.1094 18.1835L10.8602 18.2054L10.5049 18.3769L10.3431 18.3054L10.122 18.2741L10.101 18.2357L10.0409 18.1276L9.96317 18.1463L9.94454 18.2492L9.75456 18.1586L9.54898 18.2243L9.00371 18.2273L8.84795 18.2492L8.84492 18.2895L8.56134 18.3955L8.53015 18.436H8.43981L8.29662 18.5606L8.25751 18.5464L7.85124 18.3985L7.53646 18.1649L7.44938 18.1556L7.19375 17.9001L7.17628 17.8882L7.02239 17.7846L6.96022 17.7815L6.85429 17.6322L6.78584 17.6008L6.81704 17.5416L6.80423 17.5347L6.75464 17.5074H6.59888L6.3784 17.3933L6.28527 17.37L6.30855 17.3201L6.24942 17.2535L6.1982 17.2039L6.23242 17.1324L6.2294 17.1136L6.14698 17.1445L6.05548 17.0451V16.9521L6.01334 16.8219L5.93534 16.8094L5.90414 16.7439L5.96025 16.6382L5.90112 16.6067L5.90717 16.5446L5.95094 16.4665L5.94558 16.4623L5.88552 16.4134L5.77353 16.3543L5.7421 16.2297L5.65502 16.2266L5.61754 16.1891L5.6208 16.1239L5.652 16.0927L5.58331 16.0617L5.54606 16.1144L5.4839 16.0897L5.3903 16.0834L5.29671 15.9555L5.33419 15.803L5.26877 15.731L5.26132 15.7336L5.16284 15.7622L5.14421 15.7373L5.15026 15.6688L4.97588 15.6877L5.0725 15.5817L5.0257 15.5784L5.05062 15.5409L5.01336 15.5006L4.94468 15.4913L4.91977 15.4569L5.12535 15.4538L5.15958 15.4289L5.04759 15.3667L4.94794 15.3884L4.84201 15.4259L4.79521 15.4163L4.77356 15.3728L4.68928 15.3667L4.61454 15.2917L4.68928 15.2358L4.6334 15.2295L4.49627 15.223L4.46204 15.1608V15.1592L4.46507 15.0798L4.43387 15.0518L4.50255 15.0707L4.54609 15.0863L4.63642 15.0302L4.49627 14.9801L4.40267 15.0302L4.38102 14.999L4.42153 14.9554V14.8306L4.37473 14.7714L4.44644 14.6997L4.53049 14.8054L4.64271 14.8024L4.70487 14.7432L4.61151 14.7681L4.50558 14.7153L4.47438 14.6189L4.53049 14.5781L4.42782 14.5129L4.46204 14.5064V14.4223L4.38404 14.4099L4.29371 14.2511L4.15355 14.1388L4.41222 13.902L4.51815 13.7086L4.53608 13.5747L4.55866 13.4066L4.62385 13.1508L4.7235 13.0106L4.75167 12.7146L4.67065 12.2879L4.55238 12.1069L4.59917 12.0727H4.65528L4.68322 11.9325L4.65202 11.8454L4.70487 11.7923L4.5866 11.6148L4.53678 11.6551L4.50255 11.6364L4.46833 11.5367L4.37776 11.6397L4.37171 11.4806L4.41222 11.3905L4.40267 11.2377L4.44644 11.1504L4.44016 11.0474L4.49929 10.9852L4.54912 10.9726L4.67996 10.733L4.75167 10.7048L4.70185 10.6673L4.70813 10.6268L4.8732 10.4088L4.86389 10.3463L4.96657 10.1218L5.0257 10.0908L5.21895 9.9101L5.23455 9.79179L5.48692 9.42379L5.45247 9.31805L5.56469 9.2526L5.59263 9.17154L5.87946 9.02202L5.9542 9.01876V8.85688L6.11368 8.63399L6.21263 8.49541L6.61448 8.42041L6.90109 8.16188L7.03193 8.14954L7.15021 8.02167L7.17815 7.90638L7.43681 7.61361L7.46475 7.49506L7.41819 7.4359L7.38396 7.40143L7.43681 7.24887L7.36836 7.11169L7.37442 7.02132L7.48058 6.80308L7.64565 6.65355L7.65683 6.5541L7.59164 6.41109L7.77929 6.276L7.8368 6.1875L7.93785 6.15489L8.10105 6.04612L8.14436 6.04449L8.25774 5.92338L8.41001 5.8719L8.50011 5.80832L8.54365 5.80506L8.7313 5.63131L8.78602 5.52417L8.80464 5.35461L8.89312 5.23816L8.91034 5.01456L8.98811 4.92722L9.05353 4.93351L9.08822 4.90183L9.16738 4.87412L9.19229 4.90509L9.17669 4.92862V4.97497L9.19532 5.04018L9.24049 5.07442L9.35387 5.19553L9.44397 5.2144L9.5683 5.19553L9.65514 5.15058L9.72359 5.15524L9.85537 5.19111L9.98761 5.16456L10.0607 5.08537L10.063 5.08443L10.0922 5.09398L10.1147 5.17224L10.166 5.22511L10.399 5.24375L10.4577 5.24095L10.5685 5.23606L10.6942 5.19553L10.7734 5.11006L10.7874 5.06068L10.8388 5.01386L10.9364 4.96425L11.053 4.95633L11.0763 4.92373L11.1198 4.89252L11.1787 4.89112L11.205 4.91604H11.2502L11.3017 4.8492L11.3061 4.78538L11.4041 4.72482L11.4614 4.72319L11.5771 4.70689L11.7764 4.55433L11.867 4.56668L12.0257 4.56062L12.1128 4.52941L12.2094 4.58228L12.2716 4.58554L12.3778 4.48259L12.4553 4.5138H12.5428L12.5834 4.42972L12.6364 4.41715L12.7109 4.4423L12.7512 4.43275L12.8388 4.44533L12.9477 4.4267L12.9978 4.4423L13.1095 4.44836L13.1626 4.53267H13.2562L13.3403 4.46699H13.4054L13.4588 4.48888L13.496 4.4267L13.5801 4.41109L13.5863 4.35496L13.6827 4.33307L13.7421 4.37662L13.7514 4.4423L13.8916 4.45767L13.9631 4.3892L13.9665 4.34564L14.0785 4.38617L14.1689 4.46396L14.3435 4.41412L14.4057 4.4267L14.5211 4.4048L14.5426 4.42949L14.5428 4.42972L14.6485 4.33633L14.798 4.26133L14.9071 4.23967L14.9507 4.29883L14.9539 4.24596L15.0443 4.22709L15.0974 4.27391L15.0878 4.34564L15.1281 4.36102L15.1905 4.50123L15.231 4.52638L15.2811 4.47328L15.4273 4.33935L15.4648 4.36754V4.44836L15.3837 4.56994L15.3775 4.6447L15.2778 4.71318L15.2592 4.82241L15.3588 4.95633L15.4804 5.00315L15.4771 5.13707L15.5083 5.15897L15.5239 5.21813L15.4804 5.26494L15.5146 5.31152L15.4834 5.34902L15.3649 5.46757L15.1595 5.61081L15.119 5.73239L15.1844 5.85071L15.3153 5.94108L15.3747 5.92873L15.3933 5.99092L15.4489 6.01584L15.4804 5.99092L15.4741 5.95971L15.499 5.94108L15.5614 5.97532L15.5644 6.03448L15.577 6.07826L15.6985 6.15279L15.7472 6.16258L15.8415 6.18098L15.9195 6.25574L16.1218 6.2993L16.4119 6.24642L16.5392 6.2965L16.7669 6.30256L16.9071 6.39293L17.1718 6.43019L17.2745 6.56738L17.2715 6.69524L17.3993 6.94143L17.5364 7.0099H17.6952L17.7387 6.98498L17.8724 7.00059L18.1778 7.12846L18.3685 7.22651L18.4926 7.32736L18.6512 7.45802L18.8314 7.52953L18.9166 7.49669L19.0565 7.3786L19.0707 7.33994L19.1778 7.23117L19.212 7.13777L19.1622 6.97264L19.0877 6.85735L19.0998 6.6454L19.1529 6.60487L19.1778 6.49261L19.2775 6.39595L19.4521 6.31187L19.6544 6.29324L19.7822 6.22779H19.8134L19.9007 6.27135L19.9443 6.23408L19.9783 6.25271L20.1219 6.28998H20.212L20.3864 6.38664L20.3897 6.43648L20.3585 6.44906L20.3897 6.49587L20.5361 6.5364L20.6451 6.54548L20.7012 6.59532L20.9785 6.62979L21.0532 6.61722L21.1277 6.62979L21.1868 6.69524L21.2243 6.81007V6.81053L21.2648 6.79819L21.4706 6.78864L21.6294 6.84151L21.9503 6.86666L22.0841 6.89485L22.1996 6.97567L22.2492 6.94446H22.2958L22.4143 7.01922L22.5544 7.0099L22.6511 7.01922L22.8005 7.11285H22.9379L22.9533 7.07535L23.0406 6.99127L23.1463 6.95703L23.1994 6.92885L23.3092 6.86899L23.3588 6.83336L23.4752 6.83033L23.5577 6.81938L23.4927 6.84733L23.4131 6.85665L23.4112 6.87575L23.4394 6.90393L23.5295 6.86666L23.6075 6.87575L23.6853 6.86666L23.6727 6.83848L23.6135 6.82591L23.6354 6.80122L23.7756 6.83848L23.8596 6.86666L23.9281 6.85735L23.9625 6.89135L23.922 6.91022L23.9407 6.98196L24.0247 7.02854L24.081 7.11285L24.0841 7.05975L24.028 6.97567L24.0466 6.90509L24.1965 7.0113L24.4021 6.95517L24.6643 6.99872L24.7765 6.95517L24.8298 6.8832L24.8754 6.90393L24.9562 7.02318L24.9991 7.17574L25.1155 7.35205L25.206 7.56633L25.1702 7.66671L25.224 7.80646L25.2081 7.83161L25.1457 8.05917L25.1367 8.14627L25.0866 8.27088L25.1241 8.30838L25.0929 8.45465L25.0368 8.50775L25.0214 8.55759L25.0086 8.53291L24.8999 8.47351L24.7036 8.26459L24.6785 8.1868L24.5695 8.13696L24.529 8.05591V7.97485L24.3702 7.84093L24.3609 7.78783L24.3237 7.74427L24.2952 7.6383H24.255L24.2394 7.61361L24.2207 7.64156L24.2268 7.69746L24.2175 7.75382L24.3048 7.86585V7.95948L24.4573 8.14022L24.4759 8.20567L24.716 8.40806L24.7502 8.47351L24.7346 8.53896L24.7409 8.59812L24.8813 8.75091V8.79772L24.9248 8.85059L24.9404 9.00944L24.9837 9.07815L24.9809 9.16526L25.2393 9.54537L25.2582 9.66066L25.3264 9.70444L25.4903 9.94434L25.5262 10.0547L25.5727 10.1109L25.5774 10.0827L25.6044 10.1032L25.6717 10.2075L25.7108 10.2145L25.7581 10.2646L25.6368 10.2569L25.606 10.2306L25.5972 10.2676L25.6237 10.3226L25.6291 10.4246L25.6144 10.4821L25.6782 10.6964L25.8056 10.7789L25.8833 10.7819L25.9329 10.7586L25.9858 10.8676L26.0714 10.8923L26.0959 10.9435L26.1923 11.0413L26.2638 11.0695L26.2626 11.0779L26.2577 11.1129L26.2484 11.1504L26.2703 11.1811L26.2591 11.2032L26.2747 11.2219L26.2731 11.2389L26.2901 11.2619L26.3178 11.3763L26.3965 11.4713L26.3958 11.5107L26.3757 11.5114L26.365 11.4846L26.3324 11.445L26.3187 11.458L26.3296 11.5337L26.4291 11.8298L26.4512 11.9919L26.4267 12.1446L26.4828 12.3217L26.5569 12.4623L26.6256 12.4777L26.8062 12.5993V12.6773L26.8903 12.6806L26.9806 12.7272V12.7833H27.0118L27.1082 12.8862L27.2796 13.3381L27.3357 13.6341L27.3669 13.6434L27.3888 13.7522V13.7897L27.4449 13.8083L27.4791 13.8959L27.5007 14.0235L27.5725 14.0422L27.5662 13.9269L27.5475 13.9299L27.5538 13.8458L27.585 13.8335L27.6598 13.9395L27.6316 13.9707L27.7005 14.0745L27.7487 14.1228L27.789 14.0948L27.8497 14.0869L27.8761 14.1025L27.9289 14.0836L28.005 14.1691L28.0439 14.2173L28.1587 14.2439L28.1836 14.2872L28.3235 14.4425L28.3824 14.5466L28.4677 14.5825L28.5268 14.6557H28.561L28.564 14.6307L28.592 14.6694L28.6604 14.8403L28.7117 14.8546L28.7706 14.9305L28.7552 14.9554L28.7922 15.0362H28.836L28.8809 15.0595L28.9135 15.0302L28.9275 15.0535L28.9491 15.0635L28.951 15.0642L28.9491 15.0952L29.0439 15.1885H29.0704L29.0581 15.2272L29.0723 15.3546L29.0302 15.3719L28.954 15.4573L28.8967 15.4587L28.8546 15.5209H28.7659L28.8111 15.5768L28.839 15.5831L28.9028 15.5568L29.0099 15.5552L29.0239 15.5843L29.0485 15.636L29.0749 15.6406L29.3251 15.9159L29.3545 15.9779L29.395 15.9886L29.4974 16.0818L29.5985 16.1067L29.7181 16.0911L29.7554 16.0461L29.8625 15.9809L29.9295 15.9793L30.0676 15.8691L30.1079 15.8677L30.1328 15.891L30.2448 15.8861L30.2834 15.8721L30.3656 15.911L30.4853 15.8971L30.7353 15.7417L30.8161 15.7261L30.8969 15.7617L30.9591 15.7417L31.0704 15.7466L31.1854 15.6893L31.3153 15.6802L31.3544 15.7033L31.397 15.7026L31.5973 15.6656L31.6734 15.6048L31.7947 15.5878L31.8289 15.619L31.8412 15.585L31.9677 15.5698L32.041 15.4969L32.055 15.5079L32.0864 15.4482L32.0766 15.4382L32.1267 15.3889L32.1616 15.3935L32.1567 15.3749L32.2061 15.4098L32.312 15.4461L32.3593 15.4422L32.3779 15.4538L32.3353 15.5172L32.309 15.5826L32.3043 15.6492L32.2806 15.6902L32.3004 15.7266L32.3537 15.728L32.3577 15.7527L32.3143 15.789L32.2776 15.8747L32.3143 15.925L32.3276 15.9947L32.2973 16.0592L32.353 16.0517L32.3462 16.0317L32.3726 16.0387L32.3963 16.088L32.37 16.1018L32.3614 16.0857L32.309 16.0864L32.2731 16.096L32.2126 16.1984L32.2452 16.2527L32.2296 16.3508L32.2031 16.3941L32.2096 16.5015L32.0673 16.7004L31.9702 16.9056L31.9113 16.9785L31.8785 16.9722L31.8692 16.9822H37.8851C37.9524 16.9822 38.0034 16.9237 37.9998 16.8574C37.9936 16.8054 37.9854 16.7544 37.9789 16.7025C37.9389 16.378 37.89 16.0566 37.8336 15.7373C37.8164 15.6392 37.7992 15.5407 37.7803 15.4429C37.7084 15.0698 37.6287 14.699 37.5356 14.334C37.5284 14.3063 37.5198 14.2793 37.5126 14.2516C37.4239 13.911 37.324 13.5749 37.2171 13.2419C37.1866 13.1462 37.155 13.0511 37.1231 12.9561C37.0127 12.6307 36.8961 12.3084 36.7692 11.9909C36.7566 11.9597 36.7457 11.9276 36.7331 11.8966C36.5932 11.5524 36.4411 11.2146 36.2821 10.8811C36.2407 10.7935 36.1974 10.7071 36.1545 10.6207C36.0165 10.3417 35.8723 10.0666 35.7212 9.79574C35.6882 9.73659 35.6572 9.67603 35.6235 9.61757C35.4421 9.30011 35.2509 8.98918 35.0521 8.6836C35.0034 8.60883 34.9527 8.5357 34.9031 8.46187C34.7364 8.21289 34.5636 7.9681 34.3855 7.7275C34.335 7.65926 34.2857 7.59008 34.2342 7.52231C34.0139 7.23327 33.786 6.95028 33.5499 6.67451C33.502 6.61838 33.4519 6.56435 33.4033 6.50868C33.203 6.2802 32.9974 6.05684 32.7867 5.83813C32.7213 5.77036 32.6566 5.70211 32.5902 5.6355C32.3337 5.37697 32.0713 5.12403 31.8003 4.88041C31.7663 4.84966 31.7304 4.82078 31.696 4.79027C31.4529 4.57483 31.2036 4.36661 30.9495 4.16374C30.8727 4.10225 30.7959 4.04146 30.7181 3.98114C30.4348 3.76174 30.1468 3.54746 29.8509 3.3439C29.8432 3.33854 29.836 3.33295 29.8283 3.32783C29.5249 3.11984 29.2134 2.92373 28.8979 2.73321C28.8143 2.6829 28.73 2.63352 28.6455 2.58438C28.3701 2.42367 28.0907 2.26925 27.8064 2.12228C27.7566 2.09643 27.708 2.06871 27.6577 2.04309C27.3301 1.87749 26.9962 1.72261 26.6582 1.57564C26.5722 1.53838 26.4854 1.50321 26.399 1.4671C26.1171 1.34925 25.8316 1.23815 25.5427 1.13381C25.4675 1.10633 25.3928 1.07721 25.3169 1.05089C24.9669 0.929548 24.6123 0.817984 24.2533 0.716668C24.1732 0.694075 24.0918 0.674511 24.0112 0.65285C23.713 0.572729 23.4119 0.500061 23.1083 0.43438C23.0159 0.414583 22.9239 0.393388 22.831 0.374755C22.4606 0.30069 22.0869 0.235475 21.7088 0.18307C21.6469 0.174452 21.5838 0.168863 21.5214 0.160711C21.195 0.118787 20.8655 0.0857136 20.5342 0.0603264C20.4318 0.0526403 20.3293 0.0447214 20.2267 0.0386657C19.8374 0.0151418 19.4458 0 19.0507 0C19.0265 0 19.003 0.00163298 18.979 0.00186589C18.6065 0.00349627 18.2312 0.0186354 17.8542 0.0419265C17.725 0.0500783 17.5967 0.0605593 17.4682 0.0712732C17.2042 0.0927009 16.9388 0.122048 16.6729 0.154422C16.5038 0.175617 16.3337 0.193318 16.1658 0.218938C16.153 0.220802 16.1397 0.223829 16.1267 0.225693C7.63471 1.54047 0.994617 8.46024 0.102675 17.0877C0.0987167 17.1257 0.09569 17.1634 0.0921977 17.2016C0.0677513 17.452 0.0493583 17.7044 0.0346905 17.9576C0.0304997 18.0324 0.0256105 18.1071 0.0223509 18.1817C0.00884725 18.4733 0 18.7661 0 19.0609C0 19.0847 0.00116411 19.1082 0.00116411 19.1322C0.0020954 19.4033 0.00954572 19.6728 0.0216525 19.9411C0.0253776 20.0233 0.0298013 20.1051 0.0344577 20.187C0.0481942 20.4253 0.0663544 20.6629 0.0887053 20.899C0.0938274 20.9542 0.0977854 21.0097 0.103373 21.0649C0.132942 21.3486 0.169029 21.6302 0.210704 21.9101C0.221181 21.9795 0.233055 22.0482 0.244231 22.1172C0.279852 22.3391 0.319199 22.5599 0.362504 22.7796C0.377172 22.8541 0.391374 22.9286 0.406741 23.0032C0.464481 23.278 0.526411 23.5512 0.595792 23.8216C0.603941 23.8535 0.613254 23.8847 0.621636 23.9164C0.684963 24.1582 0.753413 24.3978 0.825821 24.6356C0.84887 24.7118 0.872618 24.7872 0.896599 24.8627C0.96761 25.0856 1.04211 25.3069 1.12104 25.5263C1.13734 25.5715 1.15247 25.6176 1.169 25.6628C1.26423 25.9215 1.36574 26.1773 1.47167 26.4304C1.49868 26.4952 1.52708 26.559 1.55502 26.6233C1.64093 26.8229 1.73034 27.0211 1.82323 27.217C1.8542 27.2829 1.8847 27.3488 1.91659 27.414C2.03626 27.66 2.15989 27.9034 2.28957 28.143C2.30843 28.1775 2.32846 28.2113 2.34731 28.2455C2.46186 28.4542 2.58037 28.6599 2.70237 28.8636C2.74218 28.93 2.78246 28.9962 2.82297 29.0619C2.9466 29.2624 3.07326 29.4606 3.20387 29.656C3.22645 29.6902 3.24834 29.7252 3.27139 29.7592C3.42365 29.9839 3.58151 30.205 3.74285 30.4227C3.78523 30.4793 3.82853 30.5355 3.87114 30.5918C4.00129 30.763 4.13399 30.9324 4.2695 31.0987C4.3135 31.1529 4.35704 31.2077 4.40174 31.2615C4.57449 31.4694 4.75121 31.6742 4.93257 31.8747C4.96307 31.9083 4.99451 31.9406 5.02501 31.9737C5.181 32.1435 5.34001 32.3103 5.50183 32.474C5.55607 32.529 5.61055 32.5835 5.66527 32.6377C5.83662 32.8071 6.01101 32.9738 6.18865 33.1369C6.2131 33.1592 6.23638 33.1825 6.26083 33.2044C6.46175 33.3868 6.66733 33.5635 6.87571 33.7373C6.93135 33.7836 6.98793 33.8288 7.04404 33.8747C7.21121 34.0105 7.3807 34.144 7.55229 34.2742C7.60584 34.3147 7.65869 34.3561 7.71271 34.3964C7.93039 34.5578 8.15111 34.7155 8.37578 34.8678C8.41746 34.8963 8.46053 34.923 8.50244 34.9512C8.69103 35.0772 8.88194 35.1995 9.07495 35.3185C9.14107 35.3591 9.20696 35.3996 9.27331 35.4394C9.48751 35.568 9.70404 35.6933 9.92359 35.8137C9.94594 35.8258 9.96759 35.8388 9.99017 35.851C10.2302 35.9812 10.4744 36.1053 10.7208 36.2255C10.7876 36.2581 10.8551 36.2895 10.9224 36.3212C11.1201 36.4148 11.3191 36.5047 11.5205 36.5916C11.581 36.6182 11.6416 36.6452 11.7026 36.6708C11.9554 36.7768 12.2111 36.8779 12.4693 36.9731C12.5219 36.9927 12.5754 37.0104 12.6283 37.0293C12.8416 37.1056 13.0562 37.1785 13.273 37.2475C13.3479 37.2712 13.4229 37.2952 13.4983 37.3183C13.7521 37.3959 14.0078 37.4695 14.266 37.5363C14.2799 37.54 14.2937 37.5442 14.3079 37.5479C14.5789 37.6176 14.8529 37.6793 15.1283 37.7373C15.2049 37.7534 15.2818 37.7683 15.3586 37.7834C15.58 37.8272 15.8026 37.8668 16.0268 37.9027C16.0913 37.9131 16.1551 37.9246 16.2198 37.9343C16.4994 37.9763 16.7809 38.0121 17.064 38.0417C17.1264 38.048 17.189 38.0527 17.2517 38.0585C17.4826 38.0804 17.7148 38.0981 17.948 38.1116C18.0284 38.116 18.1085 38.1209 18.189 38.1246C18.4798 38.1377 18.7718 38.1468 19.0661 38.1468C19.3722 38.1468 19.6765 38.1395 19.9792 38.1251C20.094 38.12 20.2069 38.1086 20.3212 38.1011C20.5084 38.0888 20.6963 38.0787 20.8821 38.0613C21.0027 38.0499 21.1214 38.0326 21.2411 38.0189C21.4185 37.9986 21.5968 37.9809 21.7726 37.956C21.9021 37.9376 22.0294 37.9129 22.1579 37.8919C22.3221 37.8652 22.4871 37.8412 22.6499 37.8102C22.7835 37.7848 22.9151 37.7534 23.0478 37.725C23.2031 37.6919 23.3593 37.6616 23.5132 37.6248C23.648 37.5927 23.7805 37.5545 23.9141 37.5193C24.0634 37.4802 24.2138 37.4438 24.3614 37.401C24.4943 37.3628 24.6247 37.3188 24.7567 37.2773C24.9027 37.2319 25.0498 37.1888 25.1942 37.1397C25.3236 37.0959 25.4505 37.0463 25.5786 36.9994C25.7224 36.9473 25.8677 36.8974 26.01 36.8418C26.1387 36.7912 26.2649 36.7353 26.3925 36.6822C26.5308 36.6245 26.6705 36.5693 26.8074 36.5082C26.9338 36.4519 27.0577 36.3901 27.1829 36.3312C27.3175 36.2676 27.4537 36.2064 27.5867 36.14C27.7096 36.0783 27.8295 36.0117 27.951 35.9476C28.0828 35.878 28.2157 35.8107 28.3457 35.738C28.4646 35.6716 28.5803 35.6003 28.6977 35.5314C28.8267 35.4557 28.9573 35.3819 29.0846 35.3032C29.1999 35.2319 29.3119 35.1555 29.4255 35.0819C29.5507 35.0004 29.6776 34.9212 29.8008 34.8369C29.9135 34.76 30.0227 34.6787 30.1335 34.5995C30.2543 34.5131 30.3766 34.4286 30.4951 34.3396C30.6045 34.2574 30.7107 34.171 30.8182 34.0864C30.9339 33.9956 31.0515 33.9064 31.1649 33.813C31.2715 33.7254 31.3742 33.6337 31.4787 33.544C31.5898 33.4483 31.7023 33.3549 31.811 33.2568C31.912 33.1657 32.0096 33.0707 32.1088 32.9778C32.2166 32.8762 32.326 32.7768 32.4315 32.6727C32.5285 32.5774 32.6217 32.4779 32.7167 32.3804C32.8196 32.2746 32.9241 32.1707 33.0247 32.0627C33.1178 31.9623 33.207 31.8584 33.298 31.7564C33.396 31.6465 33.4957 31.5379 33.5911 31.4257C33.6796 31.3215 33.7641 31.2139 33.8503 31.108C33.9434 30.9936 34.0379 30.8809 34.1283 30.7644C34.213 30.6554 34.2936 30.5432 34.3758 30.4321C34.4631 30.3144 34.552 30.1985 34.6365 30.079C34.7161 29.9662 34.7913 29.8505 34.8686 29.7361C34.9511 29.6143 35.0349 29.4939 35.1143 29.3702C35.1892 29.2535 35.2598 29.1338 35.3322 29.0155C35.4088 28.8904 35.4868 28.7668 35.5606 28.6398C35.6309 28.5182 35.697 28.3941 35.7648 28.2711C35.8349 28.1437 35.907 28.0175 35.9745 27.8882C36.0397 27.7629 36.1005 27.6348 36.1634 27.5079C36.2276 27.3777 36.2937 27.2482 36.3552 27.1164C36.415 26.988 36.47 26.8571 36.527 26.7272C36.5857 26.5935 36.6462 26.4602 36.7019 26.3249C36.7557 26.1945 36.8043 26.0617 36.8551 25.9297C36.9084 25.7916 36.9633 25.6546 37.0134 25.5151C37.0609 25.3826 37.1035 25.2479 37.148 25.1143C37.1955 24.9726 37.2444 24.8315 37.2886 24.6883C37.33 24.5527 37.3668 24.4151 37.4055 24.2783C37.4462 24.1344 37.4888 23.9912 37.5263 23.8461C37.5622 23.7065 37.5929 23.5654 37.6257 23.4247C37.6597 23.2794 37.6953 23.1345 37.7261 22.9878C37.7556 22.8459 37.7801 22.702 37.8066 22.5588C37.8339 22.4111 37.863 22.2644 37.8867 22.1155C37.91 21.9709 37.9279 21.8244 37.9477 21.6786C37.9654 21.5486 37.9845 21.4194 37.9998 21.2887C38.0034 21.2226 37.9524 21.1641 37.8853 21.1641Z" fill="white"/>
</svg>
